<?xml version="1.0" encoding="UTF-8"?>
<svg class="looka-1j8o68f" width="396" height="160.58" viewBox="0 0 350 141.93"
    xmlns="http://www.w3.org/2000/svg">
    <defs>
        <linearGradient id="a">
            <stop stop-color="#26275f" offset="0" />
            <stop stop-color="#813e96" offset=".14" />
            <stop stop-color="#2e64af" offset=".29" />
            <stop stop-color="#3faa49" offset=".5" />
            <stop stop-color="#f2e64a" offset=".71" />
            <stop stop-color="#f2903b" offset=".86" />
            <stop stop-color="#ed4533" offset="1" />
        </linearGradient>
    </defs>
    <g transform="matrix(3.6765 0 0 3.6765 120.32 -7.3527)" fill="url(#a)" featurekey="CGau9U-0">
        <g transform="translate(-450 -980)" xmlns="http://www.w3.org/2000/svg">
            <g xmlns="http://www.w3.org/2000/svg" xmlns:xlink="http://www.w3.org/1999/xlink">
                <path
                    d="m474 990.94c-0.03-4.945-4.045-8.945-8.997-8.945s-8.967 4-8.997 8.945c-2.962 1.473-5.003 4.522-5.003 8.055 0 4.971 4.029 9 9 9 1.851 0 3.57-0.561 5-1.518 1.43 0.957 3.149 1.518 5 1.518 4.971 0 9-4.029 9-9 0-3.533-2.041-6.582-5.003-8.055zm-8.997-7.945c4.247 0 7.723 3.33 7.976 7.514-0.933-0.326-1.931-0.514-2.976-0.514-1.851 0-3.57 0.561-5 1.518-1.43-0.957-3.149-1.518-5-1.518-1.045 0-2.043 0.188-2.976 0.514 0.253-4.184 3.729-7.514 7.976-7.514zm0 9.765c1.685 1.354 2.807 3.374 2.971 5.657-0.92 0.369-1.92 0.578-2.971 0.578s-2.051-0.209-2.971-0.578c0.164-2.283 1.286-4.303 2.971-5.657zm-3.935 5.192c-2.265-1.286-3.839-3.643-4.036-6.379 0.92-0.369 1.92-0.578 2.971-0.578 1.52 0 2.936 0.434 4.146 1.172-1.674 1.437-2.814 3.476-3.081 5.785zm4.789-5.785c1.21-0.738 2.626-1.172 4.146-1.172 1.051 0 2.051 0.209 2.971 0.578-0.197 2.736-1.771 5.093-4.036 6.379-0.267-2.309-1.407-4.348-3.081-5.785zm-5.854 14.828c-4.411 0-8-3.589-8-8 0-2.98 1.642-5.581 4.065-6.957 0.356 3.084 2.271 5.686 4.938 7.012 0.017 2.711 1.233 5.135 3.144 6.773-1.211 0.738-2.627 1.172-4.147 1.172zm5-1.765c-1.707-1.372-2.835-3.429-2.976-5.749 0.933 0.326 1.931 0.514 2.976 0.514s2.043-0.188 2.976-0.514c-0.141 2.321-1.269 4.377-2.976 5.749zm5 1.765c-1.52 0-2.936-0.434-4.146-1.172 1.91-1.639 3.127-4.063 3.144-6.773 2.666-1.326 4.581-3.928 4.938-7.012 2.422 1.376 4.064 3.977 4.064 6.957 0 4.411-3.589 8-8 8z" />
            </g>
        </g>
    </g>
    <g transform="matrix(1.7881 0 0 1.7881 -1.5367 105.82)" fill="#1c1c1c" featurekey="zSuAwM-0">
        <path
            d="m8.0762 20.195c-4.1504 0-7.2168-2.8223-7.2168-7.2559s3.0664-7.2461 7.2168-7.2461c3.1445 0 5.6641 1.6113 6.6699 4.2871l-2.7344 0.99609c-0.625-1.6406-2.1191-2.5879-3.9355-2.5879-2.4316 0-4.2969 1.6992-4.2969 4.5508s1.8652 4.5605 4.2969 4.5605c1.8164 0 3.3105-0.95703 3.9355-2.5977l2.7344 0.99609c-1.0059 2.6758-3.5254 4.2969-6.6699 4.2969zm15.322 0c-4.1504 0-7.2168-2.832-7.2168-7.2559 0-4.4336 3.0664-7.2461 7.2168-7.2461 4.1406 0 7.207 2.8125 7.207 7.2461 0 4.4238-3.0664 7.2559-7.207 7.2559zm0-2.6855c2.4316 0 4.2969-1.709 4.2969-4.5703 0-2.8516-1.8652-4.5508-4.2969-4.5508s-4.2969 1.6992-4.2969 4.5508c0 2.8613 1.8652 4.5703 4.2969 4.5703zm12.832-0.0977h4.4238v2.5879h-7.3535v-14.111h2.9297v11.523zm12.91 2.7832c-4.1504 0-7.2168-2.832-7.2168-7.2559 0-4.4336 3.0664-7.2461 7.2168-7.2461 4.1406 0 7.207 2.8125 7.207 7.2461 0 4.4238-3.0664 7.2559-7.207 7.2559zm0-2.6855c2.4316 0 4.2969-1.709 4.2969-4.5703 0-2.8516-1.8652-4.5508-4.2969-4.5508s-4.2969 1.6992-4.2969 4.5508c0 2.8613 1.8652 4.5703 4.2969 4.5703zm17.353 2.4902-3.6719-6.2109h-0.84961v6.2109h-2.9297v-14.111h5.1172c3.1934 0 4.541 1.8848 4.541 4.2188 0 1.8945-1.0742 3.125-2.9883 3.5352l4.248 6.3574h-3.4668zm-4.5214-11.68v3.3691h1.7285c1.5625 0 2.1973-0.66406 2.1973-1.6797 0-1.0059-0.63477-1.6895-2.1973-1.6895h-1.7285zm17.715 4.2288c1.5918 0.43945 2.6563 1.4844 2.6563 3.4961 0 2.3828-1.4453 3.9551-4.4238 3.9551h-5.8105v-14.111h4.5703c3.0469 0 4.6484 1.4648 4.6484 3.8672 0 1.2402-0.53711 2.2559-1.6406 2.793zm-2.9785-4.2288h-1.7773v3.3203h1.9043c1.25 0 1.7969-0.74219 1.7969-1.6992 0-0.9375-0.61523-1.6211-1.9238-1.6211zm0.664 9.1702c1.582 0 2.1289-0.84961 2.1289-1.7676 0-0.9375-0.53711-1.8262-2.1875-1.8262h-2.3828v3.5938h2.4414zm10.508-0.0781h4.4238v2.5879h-7.3535v-14.111h2.9297v11.523zm6.6601 2.5879v-14.111h2.9297v14.111h-2.9297zm16.211-14.111h2.9199v14.111h-3.3887l-6.25-10.088v10.088h-2.9199v-14.111h3.3496l6.2891 10.029v-10.029zm6.5721 14.111v-14.111h5.1074c4.502 0 6.7285 2.832 6.7285 7.0508 0 4.2285-2.2266 7.0605-6.7285 7.0605h-5.1074zm2.9297-2.5879h2.0313c2.5977 0 3.7891-1.6211 3.7891-4.4727s-1.1914-4.4727-3.7891-4.4727h-2.0313v8.9453zm25.165-8.9451h-5.3711v3.2031h4.6387v2.5488h-4.6387v5.7813h-2.9492v-14.111h8.3203v2.5781zm2.5005 11.533v-14.111h2.9297v14.111h-2.9297zm9.502-2.5879h4.4238v2.5879h-7.3535v-14.111h2.9297v11.523zm14.844-11.523v2.5781h-3.3496v11.533h-2.9004v-11.533h-3.3691v-2.5781h9.6191zm10.4 2.578h-5.2344v3.2031h4.6387v2.5488h-4.6387v3.1934h5.2344v2.5879h-8.1836v-14.111h8.1836v2.5781zm10.468 11.533-3.6719-6.2109h-0.84961v6.2109h-2.9297v-14.111h5.1172c3.1934 0 4.541 1.8848 4.541 4.2188 0 1.8945-1.0742 3.125-2.9883 3.5352l4.248 6.3574h-3.4668zm-4.5214-11.68v3.3691h1.7285c1.5625 0 2.1973-0.66406 2.1973-1.6797 0-1.0059-0.63477-1.6895-2.1973-1.6895h-1.7285z" />
    </g>
</svg>